# xmcd
#
# Track frame offsets:
#	150
#	27388
#	55515
#	82673
#	108428
#	137311
#	165582
#	192910
#	219746
#	247410
#	274860
#	302074
#	329201
#
# Disc length: 4763 seconds
#
# Revision: 1
# Processed by: cddbd v1.5PL3 Copyright (c) Steve Scherf et al.
# Submitted via: audiograbber 1.81.02
#
DISCID=b812990d
DTITLE=Arianna Huffington - Pigs at the Trough 2of5
DYEAR=2003
DGENRE=Speech
TTITLE0=Disk2Track01
TTITLE1=Disk2Track02
TTITLE2=Disk2Track03
TTITLE3=Disk2Track04
TTITLE4=Disk2Track05
TTITLE5=Disk2Track06
TTITLE6=Disk2Track07
TTITLE7=Disk2Track08
TTITLE8=Disk2Track09
TTITLE9=Disk2Track10
TTITLE10=Disk2Track11
TTITLE11=Disk2Track12
TTITLE12=Disk2Track13
EXTD=
EXTT0=
EXTT1=
EXTT2=
EXTT3=
EXTT4=
EXTT5=
EXTT6=
EXTT7=
EXTT8=
EXTT9=
EXTT10=
EXTT11=
EXTT12=
PLAYORDER=
